    <svg xmlns="http://www.w3.org/2000/svg" xmlns:xlink="http://www.w3.org/1999/xlink" preserveAspectRatio="xMidYMid meet" version="1.0" viewBox="-1.8 0.0 476.4 500.0" zoomAndPan="magnify" style="fill: rgb(255, 255, 255);" original_string_length="1958"><linearGradient xmlns:xlink="http://www.w3.org/1999/xlink" gradientUnits="userSpaceOnUse" id="__id132_s8mk88zbi" x1="136.495" x2="324.35" xlink:actuate="onLoad" xlink:show="other" xlink:type="simple" y1="6.45" y2="464.135"><stop offset="0" style="stop-color: rgb(138, 54, 197);"/><stop offset=".964" style="stop-color: rgb(28, 218, 255);"/></linearGradient><path fill="white" d="M271.8658142,232.9466858H59.2242813c-8.2466583,0-14.2144966-7.8728943-11.9865417-15.8128967 L105.6156998,9.0860767C107.1232986,3.7132695,112.0219269,0,117.6022415,0h212.6415405 c8.2466736,0,14.2145081,7.8728976,11.9865417,15.8128986L283.852356,223.860611 C282.3447571,229.233429,277.4461365,232.9466858,271.8658142,232.9466858z M133.7520599,389.9880066l30.0582581-107.1217957 c2.227951-7.9400024-3.7398834-15.8128967-11.9865417-15.8128967H42.51511c-5.5803185,0-10.4789391,3.7132568-11.9865437,9.0860596 L0.4703104,383.2611694c-2.2279553,7.9400024,3.7398837,15.8128967,11.9865427,15.8128967h109.3086624 C127.3458328,399.0740662,132.2444611,395.3608093,133.7520599,389.9880066z M189.0661011,276.1393738l-58.3779449,208.0477295 C128.4601898,492.1271057,134.4280396,500,142.6746979,500h212.6415253c5.5803223,0,10.4789429-3.7132568,11.9865417-9.0860901 l58.3779602-208.047699c2.2279663-7.9400024-3.7398682-15.8128967-11.9865417-15.8128967H201.0526581 C195.4723358,267.0533142,190.5737152,270.766571,189.0661011,276.1393738z M339.1664124,110.012001l-30.0582581,107.121788 c-2.2279663,7.9400024,3.7398987,15.8128967,11.9865417,15.8128967h109.3086548 c5.5803223,0,10.4789429-3.7132568,11.9865417-9.0860748l30.0582581-107.121788 c2.2279663-7.9400024-3.7398682-15.8128967-11.9865417-15.8128967H351.1529541 C345.5726318,100.9259262,340.6740112,104.6391983,339.1664124,110.012001z" style="fill: url(&quot;#__id132_s8mk88zbi&quot;);"/></svg>
